# Blender v2.78 (sub 0) OBJ File: ''
# www.blender.org
mtllib parallelogram.mtl
o parallelogram
v -0.473668 -0.006892 -0.006192
v -0.511436 2.699352 0.661454
v -0.507817 5.283047 0.044833
v -0.470049 2.576803 -0.622812
v 0.525568 -0.003510 0.041452
v 0.529187 2.580185 -0.575170
v 0.491419 5.286428 0.092476
v 0.487800 2.702735 0.709097
vt 0.5000 0.0000
vt 1.0000 0.0000
vt 1.0000 0.5000
vt 0.5000 0.5000
vt 0.5000 0.0000
vt 0.5000 0.5000
vt 0.0000 0.5000
vt 0.0000 0.0000
vt 0.2500 1.0000
vt 0.0000 1.0000
vt 0.0000 0.5000
vt 0.2500 0.5000
vt 0.7500 1.0000
vt 0.5000 1.0000
vt 0.5000 0.5000
vt 0.7500 0.5000
vt 1.0000 0.5000
vt 1.0000 1.0000
vt 0.7500 1.0000
vt 0.2500 0.5000
vt 0.5000 0.5000
vt 0.5000 1.0000
vt 0.2500 1.0000
vn -0.9995 -0.0061 -0.0316
vn 0.9995 0.0061 0.0316
vn -0.0454 -0.2399 0.9697
vn -0.0471 0.2319 0.9716
vn 0.0454 0.2399 -0.9697
vn 0.0471 -0.2319 -0.9716
s off
f 1/1/1 2/2/1 3/3/1 4/4/1
f 5/5/2 6/6/2 7/7/2 8/8/2
f 1/9/3 5/10/3 8/11/3 2/12/3
f 2/13/4 8/14/4 7/15/4 3/16/4
f 3/16/5 7/17/5 6/18/5 4/19/5
f 5/20/6 1/21/6 4/22/6 6/23/6
